# xmcd
#
# Track frame offsets:
# 150
# 16690
# 29876
# 45708
# 61641
# 75885
# 88416
# 106533
# 118633
# 134445
# 153091
#
# Disc length: 2250 seconds
#
#
# Revision: 0
# Processed by: cddbd v1.5.2PL0 Copyright (c) Steve Scherf et al.
# Submitted via: Nero 7, 2, 0, 3 
#
DISCID=7a08c80b
DTITLE=Rocky Votolato - The Brag and Cuss
DYEAR=2007
DGENRE=Country
TTITLE0=Lilly White
TTITLE1=Postcard from Kentucky
TTITLE2=Before You Were Born
TTITLE3=The Wrong Side of Reno
TTITLE4=Red Dragon Wishes
TTITLE5=The Blue Rose
TTITLE6=Your Darkest Eyes
TTITLE7=Time is a Debt
TTITLE8=Whiskey Straight
TTITLE9=The Old Holland
TTITLE10=Silver Trees
EXTD=
EXTT0=
EXTT1=
EXTT2=
EXTT3=
EXTT4=
EXTT5=
EXTT6=
EXTT7=
EXTT8=
EXTT9=
EXTT10=
PLAYORDER=
